<svg xmlns="http://www.w3.org/2000/svg" width="965" height="1007" fill="none"><path fill="#101111" d="m432.244.251.07.076c1.454 1.536 1.936 2.69 2.218 4.248.227 1.109.329 2.341.53 3.862l.045.335c.176 1.236.361 2.468.552 3.698.316 1.846.715 3.651 1.341 5.53.056 1.172.101 2.168.134 3.03l.076.403c1.348 7.125 2.194 13.84 1.813 21.09-.008.159-.014.318-.023.477l-.094 3.266-.156 3.297-.141 3.003c-.368 1.473-.516 2.053-1.027 2.58-.78 2.964-1.934 5.818-3.582 8.854l6-1c-2.312 2.5-2.312 2.5-5 5h-3c-.507 2.54-1.006 5.082-1.5 7.625l-.434 2.16c-.799 4.151-1.117 7.971-1.066 12.215l-1 2c-1.026 13.417-2.16 29.278 5.953 40.766 1.924 2.463 1.924 2.463 5.047 3.234l.148-2.168c.5-6.658 1.294-13.193 2.399-19.777.502-3.388.692-6.73.719-10.153.734-1.902.734-1.902 3.652-3.547 4.421-3.378 4.417-6.67 5.144-11.98 1.767-10.853 1.767-10.853 4.688-15.5 3.672-6.326 2.523-13.613 2.292-20.676-.133-6.976.083-13.783 2.958-20.199 2 2 2 2 2.215 4.942a740.998 740.998 0 0 1-.217 10.112 373.52 373.52 0 0 0-.105 6.438c-.211 9.8-2.223 17.433-5.893 26.508-.93 2.971-1.088 5.498-.992 8.606.074 3.532.084 6.98-.014 10.394H456c.188 4.219-.238 8.22-.916 12.258-.335 2.65-.77 5.314-1.33 8.015-1.566 7.741-1.785 13.732-.442 21.477l.397 2.535c.7 4.513.701 4.513 2.312 8.751 1.428 2.863 1.563 5.815 1.979 8.964l1 1 .396-1.712a776.55 776.55 0 0 1 1.854-7.663l.621-2.695.645-2.578.571-2.38c1.172-2.53 2.414-2.893 4.913-3.972.799-1.844.799-1.844 1.062-3.938.625-3.752.625-3.752 2.422-5.531 3.74-3.778 3.662-10.833 3.643-16.11-.196-.634-.243-1.387-.315-2.609L475 110h2l2 10 2.25-1.062c2.882-.983 3.962-.971 6.75.062-5.625 4.875-5.625 4.875-9 6a82.877 82.877 0 0 0-2.438 7.562c-1.194 4.316-2.414 8.321-4.546 12.274-6.246 12.02-7.605 27.401-7.204 40.726l.05 2.862c.335 5.75 1.615 9.119 5.477 13.412 1.869 1.547 1.869 1.547 5.661 1.164v-4l3-1c2.318-3.134 4.119-6.59 6-10l1.5-2.676c3.452-6.297 3.452-6.297 3.5-13.324l-3-2v-2c2.875.312 2.875.312 6 1l2 3 3-1-.875 2.145c-1.486 3.771-2.798 7.599-4.125 11.429-1 2.426-1 2.426-3 4.426l-1.062 2.938c-2.951 7.159-8.727 13.608-14.938 18.124-2.703 2.229-3.506 3.705-3.938 7.188-.07 1.915-.081 3.833-.062 5.75.017 2.278.032 4.557.043 6.835.013 1.582.039 3.163.08 4.744.075 4.565-.375 8.117-2.123 12.421 4.334-3.187 7.619-6.864 11-11l2 1-1.207 1.723-1.605 2.339-1.583 2.286c-4.312 7.124-5.052 12.539-5.167 20.777-.035 1.94-.078 3.88-.129 5.82l-.038 2.579C471 275 471 275 469.986 277.42c-1.974 5.167-1.019 10.946-.798 16.392l.095 3.776c.253 6.897 1.105 12.069 3.717 18.412.599 3.581.796 7.198.996 10.82.477 5.598 2.004 8.21 6.004 12.18l2.125 1.062c2.696 1.349 3.394 3.34 4.875 5.938l1.5 2.5c4.5 7.5 4.5 7.5 6 10.25 1.365 2.546 1.365 2.546 4.5 3.25 10.684-4.115 19.064-14.297 26-23 2.72-2.388 4.559-3.853 8-5a320.504 320.504 0 0 0 4-6c2.229-2.603 4.633-5.044 7.021-7.5 3.149-3.326 5.651-6.094 6.979-10.5-.33-4.197-1.241-8.216-2.188-12.312l-.712-3.303a810.119 810.119 0 0 0-2.717-12.03l-.547-2.375-.479-2.03c-.811-4.43-.789-8.655.643-12.95-1.106-1.703-1.106-1.703-2.75-3.312-2.079-2.165-3.333-3.864-4.633-6.606-2.322-4.426-5.765-7.198-9.437-10.52-2.491-2.927-2.905-4.78-3.18-8.562 3.751 1.25 4.001 2.776 5.773 6.117 1.333 2.046 2.676 3.21 4.602 4.695 4.487 3.557 6.94 8.211 9.625 13.188l1.125-3.188c1.763-4.19 4.248-6.152 7.875-8.812l-1-3c-.306-4.687.333-8.704 1.25-13.312.714-4.304.528-7.208-.642-10.557a82.568 82.568 0 0 0-.835-2.105 47.205 47.205 0 0 0-.734-1.604 28.146 28.146 0 0 1-.882-2.344L551 215a49.252 49.252 0 0 1-.388-1.835c-.653-2.662-.889-5.42-.612-8.165l.443-.524c.293-.578.769-1.294 1.557-2.476h1l.297 2.633c.863 6.652 1.833 10.82 5.703 16.367.559 3.861.238 7.285-1 11a210.742 210.742 0 0 0-.562 6.688l-.254 3.574L557 245c7.189-2.6 13.559-5.889 20-10-.538-2.489-.916-3.891-2.5-5.938-3.566-4.902-2.601-11.263-2.5-17.062 1.993 3.607 2.612 6.942 3.242 10.977.577 2.204.577 2.204 2.75 3.132L580 227c1.25 2.625 1.25 2.625 2 5l10 1 1.312-4.125c1.94-6.097 4.371-10.854 8.876-15.437 9.426-10.221 18.16-24.641 21.321-38.338.861-3.676 1.936-7.289 2.991-10.912l.645-2.272c.979-3.361 1.899-5.982 3.855-8.916l2.565-.855c3.314-5.022 3.368-5.078 4.435-6.145.586.124 1.005.214 1.35.291l.338-.103L642 146l-.66.81.66.19-1.375 1.188a13.32 13.32 0 0 0-2.03 3.004c-.571 1.202-1.062 2.443-1.595 3.808l-1.464 2.316c-1.576 2.754-2.352 5.114-3.114 8.184l-.818 3.169-.854 3.331c-4.535 16.797-12.295 28.884-23.32 42.086L605 217l-2.188 2.562c-2.554 3.436-3.893 5.961-3.656 10.293-.219 4.415-2.151 6.919-4.656 10.457l-1.372 1.995c-4.34 6.203-9.184 11.754-14.538 17.099a349.368 349.368 0 0 0-7.715 7.969l-2.57 2.711c-4.685 5.923-5.753 11.063-5.493 18.352l.042 2.216c.034 1.783.088 3.564.146 5.346l2.355-1.457c2.319-1.353 4.039-2.06 6.645-2.543-.277 1.891-.277 1.891-1 4l-3.562 1.75c-2.046 1.139-2.046 1.139-3.438 3.25-.641 5.392-.4 10.595 0 16l11 3 1.25-4.938c2.661-9.582 6.774-16.853 12.629-24.851 1.613-2.442 2.698-4.4 3.777-7.055C594 280 594 280 595.938 279.125L598 279c4.49-.724 7.508-3.073 10.291-6.666a268.634 268.634 0 0 0 3.959-5.959c3.763-5.635 7.66-10.752 12.309-15.699 9.096-9.97 17.395-20.848 25.441-31.676l1.218-1.61a279.814 279.814 0 0 0 3.47-4.765l2.011-2.773c1.703-3.732 1.108-5.877.301-9.852-.45-7.217-.193-13.894 1.5-20.938 2.92-12.361 2.92-12.361.258-24.351-1.501-1.695-3.088-3.186-4.758-4.711-3.867-6.353-5.566-12.746-4-20 .247-2.629.458-5.242.625-7.875l.156-2.066c.25-3.851.028-7.389-.492-11.132L650 109v-2c-.108-2.679-.047-5.316 0-8 1.918.684 1.918.684 4 2 3.44 8.858 2.025 19.741 1 29l-1 2c-1.047 7.076.792 12.287 5 18l2 1 2-5h2c.769 26.939.769 26.939-3.105 39.793-1.192 4.272-1.281 7.809-.895 12.207l1 1c1.442-2.518 2.879-5.039 4.312-7.562l1.225-2.135c4.666-8.231 6.947-14.1 6.213-23.615l-.16-2.745c-.172-4.626-.172-4.626-1.59-8.943.099-15.994 4.44-31.649 10.062-46.5 1.9-5.069 3.03-10.174 4.137-15.465.74-2.802 1.665-4.746 3.113-7.222 3.617-7.37.644-17.246-.689-25.011-.638-4.083-.695-6.26 1.377-9.802.699-3.222 1.296-6.44 1.855-9.688.939-5.106.939-5.106 3.145-7.312.099 5.346-.031 10.444-.77 15.75-.916 8.942-.192 17.507 1.77 26.25l4 1-1.875 1.875c-2.051 3.016-2.449 4.132-2.977 7.563-1.144 6.195-3.346 11.84-5.648 17.687-5.319 12.054-5.319 12.054-6.5 24.875l3 2-3 1c-.994 2.192-.994 2.192-1.625 4.812l-.727 2.645L680 141l-.605 1.883c-.58 3.111-.304 6.029-.083 9.179l.239 3.723c.232 3.36.232 3.36 2.449 6.215l3 1-.928 1.724c-1.058 2.247-1.663 4.284-2.228 6.698-2.564 10.257-5.445 18.88-11.68 27.515-2.593 3.556-2.593 3.556-2.949 7.813L668 209c0 4.07-1.615 5.754-4 9l-1.906 1.875c-2.226 2.259-4.004 4.606-5.844 7.187l-2.098 2.918a4100.235 4100.235 0 0 0-4.273 6.008c-3.385 4.729-6.764 8.897-10.879 13.012l-1.438 3c-1.588 3.049-3.193 4.45-5.878 6.52-4.794 4.215-8.612 9.921-11.684 15.48l-1.027 1.68c-2.283 3.764-2.283 3.764-3.223 8.008C615 286 615 286 613.344 287.02a180.138 180.138 0 0 1-4.274 1.933c-2.911 1.472-4.849 3.695-7.07 6.047h-2l-.688 1.688C598 299 598 299 595.688 301.125c-6.335 6.776-8.796 15.743-11.25 24.5-3.096 10.975-3.096 10.975-5.641 15.746-1.681 3.157-2.228 5.431-1.985 9.067.086 1.519.155 3.04.188 4.562l-1 1 2 1v3l-2.812.938c-4.42 2.859-5.004 6.109-6.188 11.062 4.534 2.881 4.534 2.881 9.562 4.562 3.711-.856 5.667-2.984 8.438-5.562.201 3.716.152 4.772-2 8l4 1-2.238 1.199c-2.959 1.93-4.759 3.855-6.95 6.613l-2.042 2.52c-1.88 2.834-2.815 5.419-3.77 8.668l-1.062 2.25c-1.185 3.475-1.372 6.794-1.594 10.445C571 414 571 414 569 417c-2.294.646-4.548.944-6.906 1.277-2.265.529-2.265.529-3.25 2.684L558 423l-2 1.688c-2.908 3.362-3.3 7.005-4 11.312h3l-1 5-4 1-.188 1.75c-1.146 3.174-3.072 4.378-5.812 6.25h-2l-.75 1.812C540 454 540 454 538.062 455.375c-2.728 2.15-3.533 4.508-5.062 7.625a138.74 138.74 0 0 1-2.938 3.938c-2.731 3.535-4.935 7.136-7.062 11.062h4l-7 14 2.555-1.094 3.32-1.406 3.305-1.406C532 487 532 487 534 487v-2a681.283 681.283 0 0 1 5-3 204.042 204.042 0 0 0 5.188-4.875c8.087-7.4 16.214-10.525 26.661-13.251 4.202-1.13 7.595-2.587 11.349-4.868 3.284-1.832 6.817-2.979 10.364-4.194l2.209-.787c6.888-2.399 13.057-3.121 20.354-2.963 13.077.127 26.138-.651 38.684-4.519 4.392-1.088 7.841-.319 11.691 1.895L668 450c7.942 2.744 12.494 2.317 20.004-.918 4.771-1.723 9.694-2.502 14.676-3.371 2.818-.604 4.859-1.264 7.32-2.711-1.115-2.416-2.322-4.446-3.887-6.613-2.422-3.882-3.793-7.615-5.175-11.949l-.805-2.408c-1.504-4.612-2.492-9.032-3.195-13.842-1.701-8.149-8.271-14.487-14.938-19.188-3.234-1.381-3.234-1.381-6-2v-1c3.076-.432 5.03-.697 8 0 2.012 1.865 3.549 3.878 5.199 6.066 2.051 2.203 3.226 2.554 6.113 3.184 2.032.602 2.032.602 3.688 1.75.993 2.971 1.328 5.774 1.656 8.887.478 4.326 1.815 8.062 3.344 12.113l1.164 3.234c2.713 7.357 5.188 13.245 10.836 18.766a451.766 451.766 0 0 0 9-3l3.75-1.25c3.641-1.961 4.836-3.671 7.012-7.051 1.933-2.652 4.449-4.026 7.238-5.699 1.809-1.3 3.599-2.622 5.387-3.949 3.374-2.198 6.343-2.158 10.242-2.113l3.389.023 7.007.078c11.414.908 11.414.908 21.67-2.463 1.479-1.787 2.619-3.646 3.805-5.638 4.39-6.734 10.572-12.131 17.086-16.786l.003-.004c2.047-2.237 3.766-4.594 5.368-7.161.712-1.306 1.385-2.655 2.092-4.03.829-1.547 1.54-2.851 2.416-3.934.704-1.189 1.113-1.601 2.535-3.023h2a23.023 23.023 0 0 1-.463 1.894c-.986 3.527-2.609 6.764-4.705 9.694a74.513 74.513 0 0 0-2.199 4.42c-1.773 3.248-3.585 5.094-6.383 7.492l-2.684 2.348a133.187 133.187 0 0 1-4.601 3.711c-4.457 3.457-6.569 7.002-8.824 12.171-1.188 2.364-2.09 3.618-4.141 5.27-2.217.448-2.217.448-4.789.547l-2.856.121-2.98.082-2.91.129c-4.5.165-8.777.151-13.238-.488-7.497-.937-12.638 2.162-18.415 6.484l-1.826 1.316c-6.242 4.398-6.242 4.398-9.986 10.809l3 1c-3 1-3 1-6.438.938-3.326.058-4.827.311-7.562 2.062l1 6-3 1-2-1c-8.567-.97-16.902 2.268-24 7 11.184 2.928 22.368 4.951 33.824 6.517 5.64.801 10.768 1.886 16.121 3.825 4.431 1.418 9.088 1.526 13.7 1.935 3.742.806 5.076 1.698 7.355 4.723v2c4.545-.283 8.558-.647 11.977-3.855 1.757-2.332 3.387-4.727 5.023-7.145a151.073 151.073 0 0 1 3.438-3.938c6.461-7.334 11.913-13.953 15.562-23.062a404.664 404.664 0 0 1 3.438-7.812l.837-1.96c1.942-4.301 4.013-6.42 7.725-9.228 1.912-2.18 3.636-4.494 5.375-6.812 3.056-4.007 6.056-7.801 9.75-11.25 1.869-1.82 2.934-3.047 4.187-5.376-.341-2.802-1.658-4.635-3.287-6.588L831 389c-1.275-1.381-2.041-2.355-2.511-3.52-.957-2.045-.877-3.896-.489-6.48a15.438 15.438 0 0 1 2.039 2.107c1.978 2.227 3.635 4.635 5.363 7.151 1.828 1.993 2.961 2.366 5.598 2.742l.918-2.379c4.71-11.812 4.71-11.812 9.082-16.621 2.812-.438 2.812-.438 5 0-.587 3.28-1.602 4.966-3.875 7.375-2.687 2.991-4.498 5.92-6.125 9.625l3-1 1 3a121.083 121.083 0 0 1-9.062 8.438c-3.34 2.882-5.577 5.817-7.938 9.562l-2.27 2.238c-3.056 3.092-5.651 6.334-8.23 9.824l-1.458 1.973c-4.059 5.663-6.81 11.343-9.042 17.965l2 1c4.854-2.009 9.213-5.105 13.438-8.188 4.699-3.351 9.598-6.236 14.624-9.062l2.254-1.286c6.282-3.481 12.625-6.05 19.746-7.152 11.558-2.441 22.941-9.388 30.606-18.238 1.511-2.354 1.717-3.744 1.832-6.512.335-3.923.93-6.442 3.5-9.562.638-.451 1.18-.834 1.65-1.16.261-.212.542-.429.85-.652l.438-.208c1.34-.837 1.968-.958 3.305-.976.22-.004.467-.004.757-.004v2a130.735 130.735 0 0 1-4.983 3.987L902 385c-1.203 2.405-1.101 3.95-1.062 6.625l.027 2.477L901 396c2.818-.739 5.006-1.326 7.432-2.674 1.153-1.849 1.781-3.717 2.576-6.088a25.518 25.518 0 0 1 1.744-3.241c1.731-2.885 4.064-5.412 6.248-7.997l3 1-1.242 1.793-1.633 2.395-1.617 2.355c-1.488 2.425-2.532 4.79-3.508 7.457l1.5-.5c3.534-.707 6.897-.56 10.5-.5v2l-3.027.805-3.911 1.07-1.998.527c-1.706.473-3.387 1.03-5.064 1.598l-1 2c-2.027.874-4.091 1.53-6.188 2.219-2.007.634-2.007.634-2.812 2.781a225.552 225.552 0 0 1-5 3 944.53 944.53 0 0 0-6.125 4.375c-5.688 4.002-11.419 7.004-17.875 9.625l-3.105 1.34c-4.152 1.779-8.142 3.465-12.52 4.598-3.993 1.256-7.12 3.16-10.656 5.371-2.765 1.72-5.576 3.332-8.407 4.941C819.45 447.077 819.45 447.077 803 461l-2 2h-3v3l-5 5a92.723 92.723 0 0 0-2.5 3.938C784.801 484.4 784.801 484.4 780 486l-3 3h-2l-.746 1.797c-5.815 10.218-23.874 15.495-34.316 19.641-5.701 2.297-10.865 5.317-16.157 8.413-3.575 2.051-6.711 3.605-10.781 4.461-12.737 3.147-25.054 16.663-34 25.688 3.976-.423 7.384-1.082 11.125-2.5 3.768-1.335 7.136-1.74 11.125-1.938 4.822-.258 8.862-1.083 13.438-2.624 4.902-1.643 8.882-2.264 14.027-2.004 2.314.067 4.379-.185 6.66-.559 3.505-.363 4.81-.369 7.625 1.625l-2 5c23.018 8.006 23.018 8.006 46.496 3.352 3.906-1.507 7.73-2.377 11.816-3.227 8.811-1.904 16.563-5.304 24.688-9.125 15.828-7.328 15.828-7.328 23.398-8.48 4.033-.806 7.829-2.269 11.704-3.629 5.772-1.967 11.55-3.113 17.558-4.118 3.502-.811 6.179-2.084 9.34-3.773 9.393-4.242 18.096-4.35 28.246-4.028 8.528.236 16.705-.031 24.004-4.91l.623-.4L944 504l.475.237c4.992-2.497 8.818-3.364 14.775-3.299l3.266.027L965 501c-3.389 2.259-5.129 2.324-9.125 2.688-7.983 1.097-12.337 4.774-17.875 10.312-8.712 2.479-17.06 3.145-26.062 2.875-9.317-.228-16.271 1.523-24.938 5.125-2.206.881-4.414 1.756-6.625 2.625l-3.187 1.254c-4.286 1.507-8.625 2.431-13.063 3.375-3.842.917-7.437 2.223-11.102 3.684-2.679.941-5.294 1.634-8.046 2.32-6.686 1.789-12.732 4.679-18.977 7.617-8.832 4.059-17.396 7.552-26.912 9.605-4.507.983-8.27 2.422-12.337 4.618-8.255 4.254-22.233 2.961-30.939.59A139.162 139.162 0 0 1 751 556a837.326 837.326 0 0 0-4.625-1.562l-2.187-.75c-2.985-.939-6.005-1.584-9.067-2.215-1.921-.428-3.807-1.005-5.683-1.598-5.879-1.496-10.507-1.286-16.266.629-3.009.687-5.966.735-9.047.871-6.338.394-10.561 1.762-16.125 4.625a640.166 640.166 0 0 1-7.375 3.188l-3.586 1.542C674 562 674 562 671 563l-.324 2.168c-.742 3.108-1.905 5.375-3.488 8.144A274.12 274.12 0 0 0 660 587l3.812-1.062c3.135-.874 3.971-1.01 7.188.062l-1 3c6.013-.343 11.473-1.062 17.25-2.812 5.296-1.411 5.296-1.411 9.188.5l1.601 1.207c2.708 1.526 5.194 1.646 8.273 1.98 6.862.927 11.059 3.24 16.688 7.125a1098.73 1098.73 0 0 0 6.608 4.303c1.535.994 3.066 1.995 4.592 3.002l2.14 1.402 1.918 1.265c1.876 1.189 1.876 1.189 4.742 2.028a292.3 292.3 0 0 0 4-2c2.29-.227 2.29-.227 4.766-.195l2.695.019 2.789.051 2.836.027c2.305.024 4.609.057 6.914.098v1a112.39 112.39 0 0 1-4.611 1.231l-1.014.269-3.164.844c-2.45.501-4.692.639-7.071.66-.766.045-1.537.073-2.317.084L747 612c4.739 3.686 9.505 6.286 15.107 8.368 10.416 3.871 18.588 9.175 24.893 18.632 2.788 1.067 2.788 1.067 6.102 1.824l3.671.928 3.852.936 3.875.97 1.293.321.207.021v.03c2.665.663 5.331 1.321 8 1.97v2c-7.251-.334-13.796-1.928-20.73-4.031a88.462 88.462 0 0 0-7.708-1.907c-5.858-1.747-9.5-4.349-12.718-9.515-3.05-4.382-6.715-5.524-11.656-7.109-6.623-2.338-11.976-4.566-17.188-9.438v-2c-2.398 1.399-4.698 2.755-6.855 4.508-2.386 1.66-4.407 2.315-7.207 3.054-3.232.861-5.102 1.547-7.938 3.438-15.63 3.386-30.473-2.529-44-10-12.795-7.185-12.795-7.185-27-9-6.278 5.278-9.697 15.229-13.227 22.449-8.426 17.16-8.426 17.161-14.773 23.863-2.204 2.963-2.168 3.315-1.875 6.75C621 663 621 663 619.602 664.41c-1.852 1.215-1.852 1.215-3.68 2.192-2.158 1.4-2.158 1.4-3.793 4.214-2.269 3.394-4.876 5.864-7.941 8.496-4.395 3.889-8.168 7.818-11.59 12.618C591 694 591 694 588.633 696.328c-1.952 1.981-3.497 3.759-5.113 5.977-6.096 8.169-11.321 12.085-21 15.287-7.001 2.364-11.566 5.895-16.52 11.408l-2.012 2.211a176.562 176.562 0 0 0-3.418 3.965c-3.093 3.593-6.079 6.326-10.195 8.699l-2.648 1.559a385.462 385.462 0 0 1-5.391 3.039l-2.586 1.465-2.328 1.277c-6.641 4.895-9.967 11.279-13.172 18.723l-1.168 2.591c-8.76 19.869-7.392 42.322-7.279 63.588.01 2.094.016 4.187.021 6.28.046 19.183.236 38.362.614 57.541l.058 3.096c.057 2.873.121 5.746.188 8.618l.05 2.492c-.387 9.6-.387 9.601 3.164 17.731l2.477 1.125c9.843 5.154 16.489 10.88 21.668 20.746 2.732 4.543 6.163 8.327 9.783 12.183 6.293 6.911 7.629 13.897 8.174 23.071a1549.38 1549.38 0 0 1-9 5.812l-2.543 1.659-2.519 1.611-2.286 1.476c-6.08 3.302-11.969 4.932-18.832 5.572-.773.08-1.547.15-2.344.23a364.27 364.27 0 0 1-28.601 1.58c-.98.01-1.961.03-2.971.04-28.273.21-70.109-4.47-94.17-20.902-3.034-3.636-2.534-7.507-2.343-12.055.66-3.277 1.304-4.642 3.609-7.023 2.293-.422 2.293-.422 4.973-.32l2.978.066 3.111.129c11.115.411 11.115.411 21.938-1.875 1.692-2.145 1.692-2.145 2-5l.941-3.18c1.079-3.894 1.834-7.778 2.497-11.758l.789-4.523a614.59 614.59 0 0 0 1.421-8.641c1.289-7.85 3.315-14.923 6.221-22.329 3.541-9.057 4.373-17.817 5.241-27.422.621-6.443 1.659-12.732 2.89-19.085 5.909-31.231 10.911-74.687-5.926-103.339-1.98-2.6-3.728-4.126-6.386-5.973-2.402-2.03-3.545-3.024-4.157-6.137.167-2.722.658-5.01 1.469-7.613l.719-2.383c1.154-2.597 1.988-3.908 4.281-5.617 4.687-.972 9.225-1.103 14-1 2.362-6.555 2.422-12.89 2.438-19.812l.011-3.698c-.148-11.984-2.236-23.348-4.99-34.98-.468-2.56-.541-4.914-.459-7.51l-2.449-.332-3.239-.48-3.199-.458c-3.288-.771-5.47-1.626-8.113-3.73v-4c6.75.875 6.75.875 9 2 1.373.069 2.75.085 4.125.062L436 658c2.828-11.656 2.251-26.552-3.734-37.039-5.917-8.692-12.401-11.956-22.141-15.023l-4.555-1.473-2.26-.723a959.108 959.108 0 0 1-7.255-2.363l-2.211-.729C392 600 392 600 390 599c-2.527-.241-5.03-.425-7.562-.562l-2.291-.138a168.456 168.456 0 0 0-13.708-.164c-7.543.184-13.588-.752-20.834-3.12-4.792-1.35-9.531-1.865-14.473-2.358a113.037 113.037 0 0 1-14.835-2.486c-2.958-.221-4.707.417-7.297 1.828l-1 3c-3.91 1.955-8.883 1.59-13.031.434a523.004 523.004 0 0 1-4.231-1.575c-4.325-1.357-8.772-2.04-13.242-2.768-3.449-.589-5.537-1.118-8.496-3.091 8.918.362 17.181 1.238 25.879 3.379 3.176.632 5.895.911 9.121.621l2.25-2.5c2.942-2.675 3.385-2.901 7.125-3 5.697.279 11.179 1.569 16.738 2.777 4.861.904 9.635 1.174 14.571 1.317C348 591 348 591 351.41 592.488c6.491 2.6 13.696 2.091 20.59 2.2 1.438.033 2.875.067 4.312.103 6.908.176 6.909.177 13.818.179 4.74-.064 7.959.551 12.308 2.468 5.349 2.207 9.799 3.269 15.562 3.562l1-5-1.754-.793c-2.382-1.28-4.169-2.721-6.184-4.519l-2.136-1.891C407 587 407 587 404.75 584.438c-5.491-4.867-12.523-7.856-19.5-10-3.006-.926-5.423-2.038-8.062-3.75l-2.02-1.293a318.218 318.218 0 0 1-4.492-2.946c-7.985-4.697-15.638-5.404-24.731-6.339-8.829-.952-16.87-2.712-24.722-7.104-5.5-3.021-10.587-3.941-16.785-4.631-9.792-1.169-9.792-1.169-13.747-2.43-5.674-1.453-11.355-1.338-17.191-1.445-7.212-.132-13.623-.3-20.5-2.5-5.185-.153-10.198.569-15.062 2.375-11.32 4.085-23.979 4.858-35.876 5.937l-3.177.305-2.975.246-2.652.228C191 551 191 551 188 549c-6.518-.627-12.397.835-18.73 2.344-11.517 2.084-21.261-.03-32.208-3.719-1.286-.418-2.573-.835-3.861-1.25-4.481-1.455-8.954-2.922-13.383-4.529-3.61-1.083-6.149-.58-9.818.154l-2.938.562L105 543l-1-3c-4.06-1.756-8.323-2.931-12.564-4.182a394.051 394.051 0 0 1-6.293-1.941 1412.55 1412.55 0 0 0-4.03-1.209l-3.694-1.116c-5.25-.847-9.037 1.111-13.606 3.51-5.25 2.744-9.706 3.178-15.594 3.48-4.469.262-8.692.918-13.094 1.77-10.416 1.535-25.62.44-35.125-4.312v-2l2.613.438c7.55 1.147 14.934 1.777 22.575 1.812l2.463.027c4.143-.021 6.653-.364 10.349-2.277 2.374-.064 4.752-.033 7.125.062 6.323.125 12.133-.185 17.875-3.062l2.688-2.75L68 526c5.036.239 9.312 1.734 14.013 3.475 8.098 2.986 15.483 4.968 24.112 5.4 12.479.65 23.761 5.016 35.39 9.331 2.526.946 2.527.946 5.485.794-8.447-4.8-16.26-8.415-25.875-10.125-6.242-1.132-10.927-2.359-16.203-6.035-5.144-3.239-10.743-5.615-16.26-8.149-4.267-1.983-8.324-4.118-12.288-6.543L76 514l-3-2v-2c3.848-.583 5.763.3 8.813 2.5.064.05.128.101.193.15 1.216.634 2.425 1.343 3.681 2.1 1.24.724 2.481 1.447 3.723 2.168l1.841 1.072a218.32 218.32 0 0 0 7.374 4.072l2.289 1.223c2.454.841 3.679.581 6.086-.285v4l3.438.938C114 529 114 529 115 530l2.535-.113c4.378.143 7.831 1.403 11.903 2.925l2.197.792c4.526 1.647 8.954 3.461 13.365 5.396l1-3 1.625 2.375c2.677 2.959 4.559 3.671 8.375 4.625v2c18.57-.14 18.57-.14 35.082-7.008 5.806-4.063 11.756-4.223 18.668-4.68 8.362-.64 16.28-1.623 24.433-3.624 6.825-1.667 13.399-1.842 20.379-1.813l2.788-.012c4.663.007 9.063.175 13.65 1.137-5.851-5.851-15.448-8.385-23.375-9.438-12.796-1.782-23.012-8.059-33.211-15.746-7.062-5.313-13.5-7.393-22.119-9.087-8.573-1.794-16.273-5.279-24.238-8.832-4.268-1.861-8.65-3.404-13.057-4.897l-1.972-.769c-5.678-2.108-10.449-2.543-16.466-2.293-6.02.129-11.494.026-17.374-1.434-2.423-.558-4.774-.796-7.25-1.004-3.973-.353-7.722-1.036-11.594-1.977-3.394-.757-6.832-1.209-10.278-1.668-2.866-.799-5.05-1.814-7.675-3.183-5.555-2.869-11.25-4.746-17.204-6.61-7.723-2.476-14.851-5.183-22.085-8.839-3.872-1.527-7.625-2.029-11.727-2.598-6.798-.975-6.798-.975-9.02-3.477-.777-2.106-1.135-3.921-1.355-6.148l-1-3-6-1v-1c5.111-.881 5.111-.881 8 0 1.93 2.449 3.235 4.905 4.578 7.715 1.194 2.405 1.194 2.405 3.348 3.109 2.381.242 2.381.242 6.012.051 3.903-.058 5.768.984 9.062 3.125 1.91.485 3.82.968 5.742 1.402C56.136 452.83 61.36 454.906 66 458c1.92.675 3.862 1.293 5.813 1.875l3.503 1.047L79 462l3.652 1.078c5.71 1.662 11.394 3.212 17.215 4.426 2.379.553 4.679 1.262 7.008 1.996 11.573 3.515 22.886 3.862 34.914 4.066l3.766.09 3.39.057c3.077.289 5.231 1.094 8.055 2.287 2.332.076 4.668.091 7 0-3.654-11.305-8.768-20.412-17-29l-2.305-2.43c-2.901-2.766-5.98-5.094-9.257-7.382l-1.839-1.31c-2.964-2.096-5.948-4.122-9.04-6.023-6.496-4.04-9.77-6.7-12.559-13.855-.892-1.339-1.123-1.686-1.914-2.261L110 414l-1.5-.5a28.17 28.17 0 0 0-3.958-.486l-.48.048a35.669 35.669 0 0 1-3.814-.102c-.741.012-1.49.027-2.248.04v-.29c-12.356-1.763-22.614-9.653-32.35-17.397A29.635 29.635 0 0 1 64 394v-2l.772.455L65 392l1.494 1.038a1215.22 1215.22 0 0 0 6.881 4.712l2.348 1.633c7.196 4.877 14.617 8.508 23.277 9.867l2.75.453c2.202.341 2.202.341 4.25.297v-4l.8.8.2-.8c4.023 3.754 7.774 7.267 10.438 12.125 3.19 5.52 8.595 8.886 14.562 10.875l1-3 1 3.188c1.982 4.651 5.48 6.808 10 8.812 1.657.38 3.323.725 5 1a419.563 419.563 0 0 0 2.938-4.625l1.652-2.602c1.927-3.789 2.925-6.656 1.891-10.899-.828-2.471-1.772-4.851-2.793-7.249l-1.082-2.564c-3.135-6.938-6.972-11.208-13.606-15.061l-3-2c-2.369-.349-2.369-.349-5-.438-7.993-.614-16.113-1.675-22-7.562l1-2 2.445 1.961c4.007 2.67 7.743 2.525 12.43 2.664 10.298.669 18.345 4.624 26.125 11.375a157.407 157.407 0 0 1 4 5c2.129.87 2.129.87 4 1v2h-2l1.164 2.965c5.137 13.696 5.137 13.696 1.836 21.035a280.159 280.159 0 0 1-2.188 4.125c-1.476 2.824-1.816 3.992-1.937 7.313 1.229 3.891 2.889 6.528 5.238 9.828 2.35 3.406 4.461 6.928 6.575 10.484l1.152 1.934 1.109 1.863 1.081 1.792c.841 1.439 1.603 2.924 2.349 4.415 3.347 4.637 9.467 6.169 14.621 8.246l2.094.859c3.333 1.164 5.695 1.041 9.054.368 5.746-.688 9.087 1.565 13.727 4.711l2.377 1.528c4.343 2.82 8.542 5.803 12.686 8.909 7.294 5.401 13.834 8.562 22.937 9.375 14.187 1.53 27.535 9.118 39.977 15.774 6.825 3.581 11.571 3.764 18.898 1.726l2.131-.562a337.416 337.416 0 0 0 11.744-3.376l2.344-.699c1.724-.52 3.441-1.064 5.156-1.613 3.315 0 3.724.499 6.25 2.438 4.633 3.27 9.303 2.911 14.727 2.552 5.255-.282 8.329.626 12.898 3.01 2.375 2.188 2.375 2.188 5 5 10.322 9.776 21.998 17.481 34 25l2.867 1.797c3.623 2.224 7.088 4.264 11.071 5.765 3.675 1.726 4.458 2.748 6.062 6.438l.523 1.973c1.94 7.141 5.914 12.168 11.477 17.027 3.539 1.374 6.32.753 10 0l2.246-7.422c1.077-3.684 1.873-6.996 2-10.844l.1-2.449c.06-1.674.118-3.349.172-5.023l.103-2.465.076-2.208c.303-2.589.303-2.589 1.34-6.055 1.527-5.903 1.008-11.837.756-17.878l-.136-3.886c-.119-3.401-.252-6.801-.388-10.201a2035.9 2035.9 0 0 1-.301-8.202c.53-26.705.53-26.705-4.968-52.367-3.244-2.507-5.859-2.963-9.812-4L433 456l-1-3c-1.746-1.02-1.746-1.02-4-2-3.255-1.981-6.482-4.004-9.711-6.027-3.227-2.001-3.227-2.001-6.516-3.539-2.536-1.311-3.817-2.451-5.773-4.434-2.217-1.112-2.217-1.112-4.688-2l-2.71-1.047a129.732 129.732 0 0 0-4.579-1.594c-4.447-1.476-8.124-3.597-12.085-6.109-13.565-8.419-23.635-12.804-39.938-11.25l-2 1c-2.032.085-4.067.107-6.102.098l-3.671-.01-3.852-.026-3.875-.013c-3.167-.012-6.333-.028-9.5-.049 3.009-2.006 3.73-2.261 7.125-2.379l2.391-.103 2.484-.08c1.226-.046 2.451-.095 3.677-.145 4.176-.331 8.025-1.03 12.323-2.293 3.309-.195 3.309-.195 6.438-.125l3.183.055L353 411c-2.936-1.315-5.874-2.626-8.812-3.938l-2.526-1.13-2.432-1.084-2.237-1c-2.135-.94-2.136-.94-4.993-1.848v-2c7.385.504 14.433 3.35 20.815 7.054 5.455 3.084 9.804 3.419 15.997 3.134 1.674-.053 3.347-.101 5.02-.145l2.21-.093C378 410 378 410 381 411l2.027.301c2.739.971 3.184 2.356 4.535 4.887 3.55 5.741 8.424 8.083 14.438 10.812v2l2.047.699c3.719 1.639 6.867 3.811 10.203 6.113 4.837 3.29 9.661 6.376 14.844 9.102 1.955 1.114 3.638 2.384 5.406 3.774 3.813 2.852 7.86 3.607 12.5 4.312l-1.465-6.055c-.483-2.004-.483-2.004-1.535-3.945a570.965 570.965 0 0 1-1.25-8.812c-1.431-10.109-3.663-19.932-6.177-29.82-.574-2.372-1.053-4.752-1.53-7.145-.805-3.678-2.055-6.444-4.168-9.598C428 383.292 428 383.292 428 380l-2.539-.664c-4.219-1.629-7.292-3.951-10.836-6.711-3.825-2.968-7.479-5.654-11.871-7.727-3.208-1.525-5.234-3.051-7.442-5.898-2.007-2.481-3.644-4.26-6.187-6.25-2.305-1.899-2.812-2.828-3.125-5.75l-3.438.562c-3.272.442-5.999.296-9.25-.25-3.723-.522-3.723-.522-7 1.563L364 351c-3.312.75-3.312.75-6 1a138.67 138.67 0 0 1 5-5l2.438-2.375c5.728-2.613 11.437-1.397 17.562-.625-1.166-3.149-2.368-5.732-4.438-8.375-1.921-2.539-2.693-4.039-3.687-7.187-2.417-4.432-4.838-6.155-9.297-8.426-5.328-1.507-10.305-1.058-15.764-.41-5.604.621-8.846.163-13.814-2.602-2.256-1.867-3.34-3.511-5-6l1-3c1.5 1.375 1.5 1.375 3 3v2c6.354 2.576 11.681 3.813 18.512 2.527 8.663-1.505 14.358 1.652 21.488 6.473 2.691 2.241 3.911 4.586 5.375 7.75 2.169 4.489 4.65 8.258 7.625 12.25l1.344 2.414c1.868 2.917 3.926 4.872 6.531 7.148l2.555 2.254c3.79 3.221 7.588 6.282 11.758 8.996 4.235 2.779 8.353 5.698 12.453 8.672 2.297 1.607 2.297 1.607 4.918 2.399 3.208 1.468 4.338 3.312 6.253 6.242l1.833 2.758L437 385c2.112-.779 2.112-.779 2.625-2.562 1.653-10.747-.644-22.238-6.395-31.446-1.16-1.879-1.993-3.714-2.855-5.742-7.01-13.774-18.268-20.966-31.375-28.25a662.25 662.25 0 0 1-5.875-3.438l-2.18-1.246C389 311 389 311 387.043 308.992c-2.185-2.131-4.09-3.171-6.855-4.43-5.651-2.708-10.981-5.815-15.188-10.562v-2l-2.609-.738c-3.707-1.379-6.429-3.151-9.641-5.45l-1.731-1.22a323.516 323.516 0 0 1-7.417-5.389c-5.47-4.03-11.233-7.28-17.227-10.453l-2.424-1.287c-3.752-1.95-7.425-3.686-11.424-5.068C309 261 309 261 307.188 257.938L306 255c-2.941-2.236-2.941-2.236-6.75-2.75-4.59-.958-8.881-2.452-13.25-4.125l-2.034-.741c-1.904-.751-1.904-.751-4.966-2.384-.938-2.195-.938-2.195-1-4l2.562 1.023c6.101 2.399 12.027 4.594 18.438 5.977-2.977-7.879-7.442-15.175-12.938-21.562C284 224 284 224 284 222h4c-.786-7.155-2.396-13.765-4.875-20.5l-.74-2.066c-2.6-6.799-6.702-9.789-12.447-13.996a644.63 644.63 0 0 1-.794-.583L269 185a584.44 584.44 0 0 1-2.406-2.023c-3.18-2.363-3.609-2.827-5.594-4.977v-2l.784.43.216-.43c2.902 1.886 5.796 3.786 8.688 5.688l2.474 1.607c10.732 7.082 15.656 15.08 18.514 27.639.538 3.431.725 6.887.883 10.355.565 3.472 1.462 5.791 3.441 8.711 2.878 1.056 2.878 1.056 6.25 1.188l3.781.398L310 232c2.59.399 5.174.836 7.75 1.312l3.484.614c4.017 1.146 7.331 2.807 11.022 4.725 2.893 1.422 5.862 2.628 8.865 3.759 5.295 1.439 10.359 3.361 15.552 5.459a89.822 89.822 0 0 0 12.773 2.735c6.72 1.042 10.643 3.846 14.863 8.943 2.55 3.698 4.365 7.694 6.293 11.742 2.258 4.378 4.678 7.006 9.238 8.875 4.095 2.379 5.8 5.172 8.222 9.148 3.497 5.601 3.497 5.601 7.54 10.809 2.31 2.774 4.013 5.453 5.71 8.629l1.551 2.859C424 314 424 314 424 316l14 1v7l3.312.875C445 326 445 326 448 328c3.125.167 3.125.167 6 0l-1 4h-2l.125 2.875c.02 4.832-1.067 9.431-2.125 14.125 1.931.043 1.931.043 4-1 3.889-6.218 3.482-12.79 3.438-19.938l.06-3.458c-.003-6.014-.341-10.527-3.408-15.746-1.949-3.323-3.192-6.942-4.528-10.546l-.913-2.461c-2.509-7-4.252-14.08-5.869-21.33-1.681-7.441-4.053-14.393-6.78-21.521l-.898-2.957c-1.295-3.575-3.04-6.561-5.04-9.793l-1.052-1.746c-1.815-2.933-3.093-4.559-6.01-6.504-.703-1.891-.703-1.891-1.25-4.25-1.268-4.586-3.027-8.802-5.125-13.062l-1.711-3.489c-3.133-5.237-7.135-8.536-12.164-11.887-1.456-.971-2.456-1.638-3.176-2.164L398 197l-.45-.675c-.719-.664-.996-1.217-1.55-2.325 1.549.121 2.857.3 4.032.575L403 195v.598c1.614.76 3.14 1.844 5 3.402h4c-.028-6.164-.947-9.502-5.18-13.949-6.883-7.756-10.257-15.614-11.988-25.707-1.137-4.571-3.391-7.793-6.051-11.625-4.816-7.351-7.344-14.986-7.781-23.719h2l.812 2.375c1.036 2.906 1.036 2.906 4.188 4.625 1.541 3.257 2.894 6.535 4.219 9.883 1.467 3.555 2.895 6.463 5.449 9.363 2.267 2.678 2.909 3.705 3.27 7.066.826 4.587 2.669 7.556 5.363 11.313 1.805 2.523 3.438 5.115 5.074 7.75 3.634 5.728 7.529 11.219 11.625 16.625l1.594 2.141c2.48 3.14 4.375 5.065 8.156 6.484C436 203 436 203 437.438 205.688L438 208a450.726 450.726 0 0 0-.875-4.312l-.492-2.426c-.578-2.515-.578-2.515-2.633-5.262a130.21 130.21 0 0 1 .062-8.125c.167-9.216-.794-15.742-7.062-22.875v-2l6 1c2.928-5.728 4.424-11.519 4-18-2.18-5.285-5.518-9.398-9.062-13.828-5.25-8.594-5.425-17.442-5.313-27.297l.031-3.901c.258-15.822 2.794-31.945 11.012-45.783a20.678 20.678 0 0 0 1.369-4.95c.193-2.855.153-5.713.151-8.616v-2.96a136.509 136.509 0 0 0-.635-12.038l-.491-3.69-.263-1.99-.264-1.982-.265-1.998a435.505 435.505 0 0 0-.832-5.686C431.926 7.448 431.932 3.86 432 0l.244.251ZM622 615c-7.034-1.361-12.879-1.142-19 3l-.82 2.512C601 623 601 623 597.691 624.293c-1.371.32-2.748.617-4.129.895l-2.174.492c-4.171.925-8.362 1.68-12.576 2.382-3.849.664-6.713 1.42-9.812 3.938l-1.051 2.039c-3.134 3.153-6.849 2.739-11.137 2.961-10.737.57-19.136 4.268-26.812 12-3.103 4.583-6.035 9.481-7 15 .379 2.187.379 2.187 1 4l-1.875.75c-2.579 1.517-2.986 2.519-4.125 5.25a74.078 74.078 0 0 0-1.062 5.062l-.559 2.93c-.477 2.982-.477 2.982-.164 5.891.186 3.269.185 5.13-1.215 8.117-3.108 2.321-6.598 3.838-10.184 5.276-4.326 1.648-4.326 1.647-7.257 5.06-2.37 10.819-2.37 10.819 1.191 20.914 2.104 2.799 2.86 3.62 6.25 4.75 9.746-3.916 17.588-13.535 24.754-20.867 2.948-2.799 6.15-5.13 9.496-7.43 2.191-2.133 2.425-3.714 2.75-6.703l2.492-.191c15.227-1.671 25.292-11.906 34.613-23.407a508.637 508.637 0 0 0 3.375-4.511c1.453-1.808 2.889-3.152 4.708-4.579 3.033-2.494 4.854-4.923 6.812-8.312v-2l2.152-.121c3.964-1.223 5.896-3.815 8.41-6.941l1.475-1.796c3.328-4.139 6.049-8.163 7.963-13.142l.973-2.461c.674-1.708 1.345-3.418 2.011-5.129 1.403-3.328 3.14-6.327 5.016-9.41Zm-101 18c-9.285-4.015-25.342-3.424-34 2l-1 2c-2.062.625-2.062.625-4 1-1.794 5.28-.217 10.628.672 15.985.329 2.021.626 4.044.922 6.07 1.348 8.654 3.488 16.543 8.406 23.945 2.678 2.223 2.678 2.223 5 1.875 2.65-1.16 3.548-2.386 5-4.875l.371-2.129c.856-3.906 2.428-7.394 4.004-11.059 2.042-4.808 3.935-9.493 5.25-14.562 1.152-4.214 3.002-6.396 6.375-9.25 1.934-2.901 2.301-3.897 2.625-7.188L521 633Zm179.896-171.323c-8.733-2.008-20.377-3.559-27.724 2.94a153.386 153.386 0 0 0-2.789 3.684c-4.478 5.502-12.87 6.875-19.381 8.84-4.7 1.421-9.231 3.06-13.764 4.957-2.304.928-4.623 1.707-6.988 2.464-5.872 1.927-10.684 4.651-15.637 8.297-1.786 1.263-3.611 2.26-5.613 3.141.9 2.254.9 2.254 3.562 3.5 3.3.844 3.3.844 5.333-.605a310.43 310.43 0 0 0 4.046-3.29c5.458-4.256 11.417-5.195 18.227-5.043 3.082.477 5.809 1.559 8.456 2.934 4.151 1.279 4.361 1.489 6.376 3.504l-10-1 1.708-.854a25.048 25.048 0 0 1-5.583-1.896c-4.368-1.763-7.462-.827-11.793.723-3.79 1.669-7.121 3.553-9.77 6.777-2.7 2.16-5.261 1.598-8.562 1.25a248.022 248.022 0 0 1-4-3c-4.097.429-7.403 1.985-11.062 3.812l-3.098 1.52c-2.861 1.498-2.861 1.498-4.711 3.68-2.519 2.353-4.728 3.131-7.947 4.237C568.021 516.436 557.227 522.255 547 530c-3.862 2.904-7.588 5.365-11.938 7.5-8.961 3.771-8.961 3.771-14.374 11.125L520 552a530.332 530.332 0 0 1-3 3 91.888 91.888 0 0 0-2.625 5.125 511.032 511.032 0 0 1-7.625 15l-1.148 2.175a441.849 441.849 0 0 1-6.122 11.157 286.128 286.128 0 0 0-14.726 29.828 64.06 64.06 0 0 1-1.965 4.02c-1.186 2.547-.915 4.933-.789 7.695 2.982-.713 5.889-1.579 8.812-2.5 10.786-3.209 22.112-3.426 33.188-1.5h4c4.697 2.185 4.697 2.185 5.812 5.188L534 633c2.559-.492 4.336-1.19 6.629-2.488 4.584-2.056 8.864-2.228 13.83-2.508 4.281-.365 7.215-1.212 10.912-3.445 4.953-2.976 9.717-3.802 15.379-4.621 8.364-1.215 8.364-1.215 15.25-5.938 8.286-4.398 16.408-5.706 25.64-6.367l2.368-.176 2.114-.126c2.205-.259 2.205-.259 4.878-2.331.798-2.181.798-2.181 1.312-4.688.974-3.529 1.856-5.899 4.376-8.562 4.3-4.562 7.017-10.058 10.047-15.495 13.684-24.398 13.684-24.398 21.234-32.946 2.111-2.4 3.953-4.92 5.843-7.497 3.772-4.756 8.088-7.671 13.211-10.855 3.737-2.457 6.904-5.314 10.137-8.391C699 515 699 515 702 514c.545-2.083 1.067-4.175 1.473-6.29.952-4.893 2.275-9.699 3.527-14.522l.789-3.1.773-2.983.692-2.682c.716-2.327 1.492-4.336 2.746-6.423 1.812-.363 1.812-.363 4-.312 3.039-.188 5.766-1.159 8.273-2.592L724 474a768.495 768.495 0 0 1 4.375-3l2.461-1.688c.924-.56 1.454-.881 1.913-1.065L733 468c-1.868-1.868-5.117-1.495-7.625-1.75-8.299-.918-16.355-2.669-24.479-4.573Zm-7.334 130.698c-4.029-1.407-5.707-1.404-9.562.625-4.55.948-8.667.96-13.312.812-6.336-.08-11.072 1.348-16.688 4.188v2l3.734 1.285c15.031 5.287 15.031 5.287 21.204 9.215 10.878 6.84 26.996 13.221 40.062 11.5 3.032-.796 5.981-1.775 8.938-2.812l2.26-.79c3.586-1.327 6.339-2.443 8.802-5.398v-2l-2.457-1.25c-6.817-3.555-13.007-7.319-19.105-12.051-3.713-2.588-6.953-3.987-11.5-3.824-4.651.148-8.074.215-12.376-1.5ZM503 530c-4.718-1.573-8.565-.014-13 2-4.68 3.698-7.084 8.098-8 14-.101 5.394-.101 5.394 2 10 6.425-.131 10.319-2.696 15-7 1.498-2.995 1.607-6.211 2-9.5.865-7.23.865-7.23 2-9.5Zm-146.487 2.285c-2.783-2.365-6.128-.874-9.513-.285 2.597 2.258 5.152 3.499 8.312 4.75 4.966 2.105 8.175 5.229 11.688 9.25l2-1a1745.46 1745.46 0 0 0-6.875-7l-1.973-2.023-1.894-1.915-1.745-1.777Zm-19.4 2.695c-9.048-2.763-17.831-1.836-27.113-.98 2.594 1.729 4.302 2.538 7.203 3.438l2.473.773 2.574.789 2.527.789c1.648.512 3.298 1.019 4.95 1.519 1.938.59 3.866 1.212 5.793 1.84 4.326 1.059 8.48 1.305 12.918 1.477l2.505.117c2.019.094 4.038.177 6.057.258-4.653-5.268-10.492-6.801-17-9l-2.887-1.02Zm-72.927-2.518c-9.286-1.963-18.733-.01-27.811 2.038-8.901 1.886-17.224 3.032-26.324 2.49-5.321-.269-8.44.542-13.051 3.01a68.446 68.446 0 0 0-3 3c13.492.357 26.079.534 38.961-4.055 8.565-2.664 17.225-2.138 25.898-.433 9.134 1.42 18.261.981 27.141-1.512v-3l-2.688 1.188c-6.293 1.857-13.049-.924-19.126-2.726ZM544 517c-3.029-1.393-3.029-1.393-5.891.363l-3.359 1.949c-4.593 2.658-8.644 4.412-13.75 5.688l-1 5c6.909-1.902 13.235-4.679 19-9v-2l5-2Zm-47.047-24.113-2.703 3.801-1.344 1.896c-1.983 2.785-3.982 5.511-6.125 8.178-5.134 6.452-5.17 12.274-4.781 20.238 1.698 1.226 1.698 1.226 4 2 2.665-.595 2.665-.595 5.375-1.812 3.896-1.608 7.443-2.614 11.625-3.188l.402-2.992.536-3.883.527-3.867C505 510 505 510 506 508c.065-6.255-1.489-11.806-5-17l-2-1-2.047 2.887ZM331 526c-6.816-2.943-12.093-1.109-19 1 3.787 2.557 7.412 2.035 11.75 1.625l2.113-.172c1.713-.141 3.425-.295 5.137-.453v-2Zm278-70c-3.684-.168-6.368.285-9.801 1.609l-2.713 1.039-2.798 1.102-2.764 1.055c-4.156 1.608-8.197 3.28-12.151 5.34-3.515 1.813-6.984 2.85-10.835 3.793-6.403 1.741-10.752 3.721-15.379 8.574-1.666 1.59-3.309 2.602-5.309 3.738-2.972 1.793-5.181 3.612-7.5 6.188-2.98 3.179-5.991 4.797-9.938 6.624-6.341 3.009-6.341 3.009-9.812 8.938.004 2.575.239 4.992.641 7.535.368 2.523.413 4.919.359 7.465 5.29-.523 9.506-1.897 14.312-4.188 6.767-3.117 13.603-5.572 20.748-7.682 7.04-2.179 10.099-5.82 13.94-12.13v-2l2.172-.793c9.463-4.039 15.033-10.445 20.48-18.937 3.063-4.532 7.093-7.853 11.258-11.344L606 460v-2l3-1v-1Zm130 13c-1.858 0-3.021.055-4 .32v.68c-1.426 1.184-1.426 1.184-3.312 2.438-2.501 1.671-4.617 3.376-6.688 5.562l-.196-.785c-1.728 1.291-3.475 1.732-5.679 2.473-3.775 1.815-4.951 2.956-6.82 6.773-2.724 7.909-4.254 16.258-5.305 24.539 6.688-.393 11.52-3.098 17.312-6.312 6.031-3.312 11.98-6.319 18.404-8.792 16.257-6.06 16.258-6.06 28.284-16.896l-7-1-2-5-3.762-.367-4.926-.508-2.474-.238c-4.319-.455-7.82-1.164-11.838-2.887Zm-158 26c-3.858-.661-5.364-.007-7.812 2.875-2.379 2.762-2.379 2.762-2.188 5.125 4.308-1.077 7.636-2.039 11-5l-1-3Zm30.308-12.619c-.62.699-1.085.823-2.253 1.131L603 484v-.312c-3.628.812-7.114 1.46-10.875 1.624-4.996.432-8.681 3.15-12.125 6.688v2c5.262-.501 9.21-2.21 13-6 2.333-.041 4.667-.042 7 0v2c5.31-1.46 9.463-3.983 14-7-1.003-.334-1.877-.529-2.692-.619Zm-112.847-84.334-2.086 2.703-2.039 2.672C492 406 492 406 489.023 407.961c-3.388 2.285-5.353 4.634-7.773 7.914l-2.297 3.055c-2.96 4.653-4.094 9.166-4.891 14.57-.694 4.506-1.618 8.881-2.687 13.312-2.277 10.542-1.657 20.86-.5 31.5l.237 2.23c.44 4.173.44 4.173 2.888 7.458 3.187.607 5.224.439 8.066-1.168 3.887-2.784 6.951-5.369 8.934-9.832v-2l-2-1c1-3 1-3 4-5 1.393-2.589 1.393-2.589 2.562-5.625l1.254-3.039c1.327-3.74 2.276-7.478 3.184-11.336l1.446-5.781c.339-1.357.675-2.715 1.01-4.073.775-3.137 1.575-6.252 2.47-9.357 3.058-10.814 3.979-20.93-1.637-30.996-1.177-1.931-1.177-1.931-3.289-2.793l-1.539 2.047ZM659 450c-2.336 0-3.851.637-6.055 1.422-4.671 1.433-9.222 1.977-14.078 2.281l-2.202.145c-3.027.19-6.054.369-9.084.507-11.753.501-11.753.5-21.424 6.785-1.509 2.061-1.509 2.061-1.157 5.86l-1.781.301c-5.893 1.857-10.227 8.553-13.219 13.699v2c4.566.122 8.588-.214 13-1.206V481c5.715-2.208 6.233-2.406 9.071-1.351l3.088-.732c28.414-6.802 28.414-6.802 54.841-18.917v-2l5-1v-1l-2.23-.551c-5.057-1.302-9.4-2.489-13.77-5.449Zm-138 9a379.547 379.547 0 0 0-7 8l-2.5 2.875c-2.166 4.513-1.376 8.306-.5 13.125h2l.699-2.781c1.916-7.209 4.11-12.992 8.301-19.219l-1-2Zm2 0 2-3h-2v3Zm42-85c-5.907 9.517-11.249 19.156-16.132 29.237-1.196 2.428-2.477 4.809-3.743 7.201-1.899 3.76-2.93 7.297-3.57 11.457-.723 2.744-2.02 4.718-3.555 7.105l-4 6.375-2.062 3.273c-1.965 3.399-3.467 6.72-4.938 10.352 3.003 1.365 3.003 1.365 5.859-.188 5.641-3.255 11.89-7.168 14.086-13.566.285-1.859.524-3.726.715-5.598.673-5.245 2.95-9.258 6.652-12.96C557 415 557 415 560.688 413.5c3.26-1.18 3.26-1.18 4.687-3.188.735-2.719 1.051-5.433 1.352-8.23.83-6.326 2.814-12.76 7.523-17.207L576 383c.045-2.025.045-2.025-1-4-2.298-1.573-2.298-1.573-5.062-2.75l-2.786-1.297L565 374Zm-35.137 28.574c-2.352 3.206-4.528 6.123-7.488 8.801-7.429 8.211-8.851 21.885-9.375 32.625l1 3c3.4-6.414 3.4-6.414 5.938-13.188 1.046-2.771 1.907-3.882 3.874-6 6.274-6.963 8.863-15.697 10.188-24.812l-3-2-1.137 1.574ZM389 425c1.81 1.628 1.81 1.628 4 3l3-1c-2.647-1.461-3.894-2-7-2Zm-22-10c2.786 1.367 5.579 2.716 8.375 4.062l2.406 1.182 2.305 1.104 1.914.927V422l2.399.8L386 422c-.614-3.993-.614-3.993-3-7-4.971-1.278-9.887-1.692-15-2l-1 2Zm77-33c-3.569 12.175-1.181 23.957 2 36h2c-.312-7.001-.648-14.001-1-21l-.113-2.353a725.28 725.28 0 0 0-.325-5.897l-.183-3.328L446 383l-2-1Zm48-5c-14.38 9.287-14.38 9.287-21.188 24.312-.822 4.964-.977 9.665-.812 14.688 5.657-1.018 7.912-2.572 11.398-7.074 1.729-2.078 3.586-3.702 5.664-5.426 4.787-4.117 8.767-8.103 9.938-14.5 0-4.703-.755-6.926-3-11l-2-1Zm31.625-14.562c-2.728-.455-4.136-.639-6.625.562-2.361 3.201-2.361 3.201-3 7l-3 1v3l-4 1c-1.068 3.229-.93 5.063.18 8.258l.816 2.394.879 2.473.855 2.496c1.452 4.265 1.452 4.265 3.27 8.379 2.779 1.103 2.779 1.103 6 1 5.499-4.177 7.757-10.16 10.562-16.312l2.817-6.051 1.341-2.901c1.692-3.614 3.473-7.177 5.28-10.736-1.916.081-3.833.139-5.75.188l-3.234.105c-2.32-.225-3.647-.658-5.061-1.659a41.173 41.173 0 0 1-1.33-.196Zm34.965-22.418c-1.541 6.596-3.911 11.438-7.688 17.027-4.87 7.561-8.665 15.902-11.855 24.297-1.832 4.649-3.927 9.192-5.973 13.75L532 398l1 2c6.401-2.515 9.237-8.904 12.375-14.625l1.19-2.156c.786-1.424 1.571-2.848 2.354-4.274a238.81 238.81 0 0 1 2.823-4.91c6.682-11.512 10.275-22.63 9.258-36.035h-2l-.41 2.02Zm-86.965 9.668c-.34 2.41-.707 4.812-1.102 7.214-.926 5.703-1.765 11.417-2.398 17.16l-.367 3.161c-.012 2.935-.012 2.935 2.234 5.148L472 384l2.938-2.625c4.098-3.527 8.513-6.466 13.062-9.375-.591-2.799-1.164-4.243-2.812-6.688-1.763-2.669-2.921-4.899-4.126-7.812-1.803-4.214-3.862-7.216-7.062-10.5h-2l-.375 2.688ZM512 364c-2.873 0-4.277 1.39-6.625 3l-2.477 1.688L501 370l2 1v2h2v-2l1.812-.688c2.752-1.65 3.713-3.509 5.188-6.312Zm40.438-44.438c-1.664 2.502-3.463 4.544-5.626 6.626-3.902 3.768-7.232 7.918-10.601 12.164-3.059 3.664-5.994 6.907-10.086 9.398-5.194 3.739-8.602 8.966-12.125 14.25l2.773-.254 3.602-.308 2.83-.25L523 361l1-1 2 .438c3.407.638 6.558.592 10.012.5.653.02 1.091.034 1.457.079 1.436-.664 2.865-1.646 4.531-3.017 1.726-2.595 2.958-5.33 4.188-8.188l1.038-2.318c6.873-14.815 6.873-14.816 6.774-30.494l-1.562 2.562ZM434 322c-.616 7.231-.616 7.231 1.688 13.875L438 338l2.562 2.75c2.301 2.433 2.301 2.433 5.438 3.25 1.343-4.03 1.267-7.798 1-12-1.969-2.475-4.366-3.955-7.062-5.562-2.31-1.381-4.023-2.523-5.938-4.438Zm131-1c-.21 4.141-.21 4.141 1 8 .188 4.135-.227 7.94-1 12h2l3.711-7.324c2.02-4.194 3.289-6.952 3.289-11.676l-9-1Zm-140-1c1.688 4.231 1.688 4.231 5 7 .167-2.416.167-2.416 0-5l-2-2h-3Zm-8.375-4.25c-2.811-.933-2.811-.933-6.625-.75 2.744 2.947 5.383 5.192 9 7l2-1c-1.035-2.824-1.666-3.824-4.375-5.25Zm-90.066-76.262c-8.785-5.11-19.622-6.154-29.559-5.488 3.453 6.215 7.921 11.274 12.875 16.312l1.747 1.814c5.163 5.14 10.656 7.832 17.378 10.436 5.447 2.362 10.082 5.876 14.899 9.294 4.965 3.481 9.984 6.289 15.55 8.73 3.099 1.718 5.091 3.869 7.551 6.414 2.236 1.946 4.549 3.788 6.875 5.625l1.777 1.445c4.485 3.548 8.948 6.287 14.66 7.368L392 302l.891 1.867c1.965 3.779 5.272 5.496 9.109 7.133 2.851.507 5.593.744 8.484.859 2.314.13 4.298.498 6.516 1.141-1.494-6.308-5.202-10.894-9-16l-1.175-1.61c-4.519-6.183-8.956-12.067-15.036-16.828-5.1-4.454-7.004-9.363-9.152-15.624-2.575-4.621-5.895-7.143-10.995-8.622-2.624-.522-5.245-.935-7.892-1.316-4.872-.812-9.307-1.703-13.697-3.298-.273-.043-.562-.09-.869-.143-4.514-1.155-8.846-2.873-13.184-4.559.184-.367.366-.735.552-1.105-1.53-.57-3.069-1.121-4.607-1.684C329 241 329 241 326.559 239.488ZM549 269c-1.087 4.05-.831 6.864.145 10.922l.802 3.355.865 3.473.831 3.52c1.048 4.402 1.048 4.402 2.357 8.73l2 1c.059-3.521.094-7.041.125-10.562l.051-3.002c.036-5.523-.101-10.278-2.176-15.436-2.496-1.518-2.496-1.518-5-2Zm-132-75c.296 7.99 3.619 14.235 7.125 21.312l1.687 3.514c2.717 5.567 5.558 10.889 8.954 16.072 2.694 4.118 4.462 7.705 5.859 12.414.395 1.287.793 2.574 1.191 3.86l.587 1.932c.952 3.023 2.063 5.985 3.159 8.958 2.13 5.892 3.901 11.835 5.543 17.879A73.44 73.44 0 0 0 454 288h2c1.314-6.214.529-10.549-1.168-16.625-1.24-5.028-1.798-10.085-2.402-15.223-.334-3.171-.334-3.171-1.43-6.152a303.247 303.247 0 0 1-.312-6.25c-.416-5.859-1.35-8.981-4.688-13.75-2.362-3.912-4.162-7.417-5.629-11.738-2.272-5.75-5.701-9.138-10.309-13.137l-2.13-1.93c-3.547-3.191-7.167-6.262-10.932-9.195Zm173 42c-6.333-.54-11.021 2.775-16.431 5.707a352.71 352.71 0 0 1-5.483 2.877l-3.477 1.865-3.188 1.698c-2.618 1.642-2.618 1.642-3.259 4.403L558 255l-.203 2.754-.047 2.808-.078 2.817c.38 3.034 1.315 4.37 3.328 6.621l1.188-2.312C564 265 564 265 566.312 263.617 575.96 257.812 585.613 246.419 590 236Zm-35 18c-1.17-.096-1.17-.096-2.5 1.062-2.204 2.847-2.307 5.403-2.5 8.938l2 2h3v-12Zm-92-33c-1.462-.092-1.462-.092-4 2-1.622 5.583-.923 11.36 0 17 2.146-1.516 2.146-1.516 4-4 .291-2.737.383-5.039.25-7.75l-.055-2.113A293.477 293.477 0 0 0 463 221Zm-5-36c-5.316 9.215-7.361 19.49-5 30 .773 2.214.773 2.214 2 4 2.878 1.211 2.878 1.211 5.5.625 3.397-2.208 3.987-4.43 5.059-8.25.642-3.454.397-5.999-.559-9.375l-2-2.812c-2.414-3.848-2.553-6.655-2.727-11.114L460 186l-2-1Zm-13.367-40.746-.508 4.308-.238 2.135c-.41 3.423-.943 6.489-1.942 9.807-1.101 4.072-1.249 7.679-1.195 11.871l.017 2.258c-.035 9.441-.036 9.441 4.233 17.367h3l.805-2.371 1.07-3.067 1.055-3.058C452 181 452 181 454 180c2.428-4.162 3.125-6.029 2.5-10.875-.475-1.715-.98-3.423-1.5-5.125-.398-1.393-.793-2.786-1.188-4.18a384.142 384.142 0 0 0-1.596-6.037L451 155l-1-7 .539.539c-.602-1.643-1.372-3.593-2.539-6.539l-3-1-.367 3.254ZM408 182v-3h-1l1 3Zm-6-12c.195 1.95.195 1.95 1 4 1.984 1.284 1.984 1.284 4 2-1.37-3.161-1.989-3.993-5-6Zm50-69c-1.556 1.645-1.556 1.645-3.062 3.75l-1.598 2.109c-2.358 3.767-2.493 7.402-2.656 11.782l-.127 3.242-.119 3.367-.131 3.414A3315.73 3315.73 0 0 0 444 137l5 2-.105-1.922c-.278-9.552 1.248-18.706 2.83-28.092.344-2.147.344-2.147.275-4.986h1.459c.168-.626.348-1.255.541-1.888V101h-2Z"/></svg>